<svg width="37" height="44" viewBox="0 0 37 44" fill="none" xmlns="http://www.w3.org/2000/svg">
<path d="M29.8836 6.74076C34.2831 11.4574 35.0463 18.51 31.7575 24.0585L29.2942 28.2138L28.1041 27.5084L30.5671 23.3529C33.5427 18.3329 32.8523 11.9521 28.8719 7.68472L25.1992 3.74727L26.211 2.80358L29.8836 6.74076ZM22.5162 7.69661C27.2966 12.4426 27.8348 19.9907 23.776 25.3668L22.6718 24.5331C26.3135 19.7094 25.8306 12.9367 21.5414 8.6784L20.5788 7.72255L21.5536 6.74076L22.5162 7.69661ZM11.37 13.9936C13.7126 15.9179 13.7125 19.5031 11.37 21.4274L10.4917 20.3583C12.1604 18.9876 12.1605 16.4334 10.4917 15.0626L11.37 13.9936Z" fill="#C75B33"/>
<path d="M0 18.3236C6.74947e-05 9.45028 10.1295 4.46273 17.3097 9.51528C21.9386 12.7727 23.2832 19.1572 20.224 23.9579C17.4102 28.3734 11.7984 30.0796 7.0031 27.9775L4.14878 26.7263L5.26002 24.1919L8.11407 25.4429C11.6599 26.9973 15.8095 25.7357 17.8901 22.4708C20.1372 18.9446 19.1631 14.2035 15.7171 11.7786C10.2936 7.96206 2.76736 11.7856 2.7673 18.3236V43.8616H0V18.3236Z" fill="#C75B33"/>
</svg>
