<svg width="108" height="44" viewBox="0 0 108 44" fill="none" xmlns="http://www.w3.org/2000/svg">
<path d="M29.8836 6.74076C34.2831 11.4574 35.0463 18.51 31.7575 24.0585L29.2942 28.2138L28.1041 27.5084L30.5671 23.3529C33.5427 18.3329 32.8523 11.9521 28.8719 7.68472L25.1992 3.74727L26.211 2.80358L29.8836 6.74076ZM22.5162 7.69661C27.2966 12.4426 27.8348 19.9907 23.776 25.3668L22.6718 24.5331C26.3135 19.7094 25.8306 12.9367 21.5414 8.6784L20.5788 7.72255L21.5536 6.74076L22.5162 7.69661ZM11.37 13.9936C13.7126 15.9179 13.7125 19.5031 11.37 21.4274L10.4917 20.3583C12.1604 18.9876 12.1605 16.4334 10.4917 15.0626L11.37 13.9936Z" fill="#C75B33"/>
<path d="M0 18.3236C6.74947e-05 9.45028 10.1295 4.46273 17.3097 9.51528C21.9386 12.7727 23.2832 19.1572 20.224 23.9579C17.4102 28.3734 11.7984 30.0796 7.0031 27.9775L4.14878 26.7263L5.26002 24.1919L8.11407 25.4429C11.6599 26.9973 15.8095 25.7357 17.8901 22.4708C20.1372 18.9446 19.1631 14.2035 15.7171 11.7786C10.2936 7.96206 2.76736 11.7856 2.7673 18.3236V43.8616H0V18.3236Z" fill="#C75B33"/>
<path d="M51.1246 29.27C49.8286 29.27 48.7186 28.988 47.7946 28.424C46.8706 27.854 46.1596 27.062 45.6616 26.048C45.1696 25.034 44.9236 23.858 44.9236 22.52C44.9236 21.182 45.1696 20.006 45.6616 18.992C46.1596 17.978 46.8706 17.189 47.7946 16.625C48.7186 16.055 49.8286 15.77 51.1246 15.77C52.6186 15.77 53.8636 16.145 54.8596 16.895C55.8556 17.639 56.5546 18.644 56.9566 19.91L54.7696 20.513C54.5176 19.667 54.0886 19.007 53.4826 18.533C52.8766 18.053 52.0906 17.813 51.1246 17.813C50.2546 17.813 49.5286 18.008 48.9466 18.398C48.3706 18.788 47.9356 19.337 47.6416 20.045C47.3536 20.747 47.2066 21.572 47.2006 22.52C47.2006 23.468 47.3446 24.296 47.6326 25.004C47.9266 25.706 48.3646 26.252 48.9466 26.642C49.5286 27.032 50.2546 27.227 51.1246 27.227C52.0906 27.227 52.8766 26.987 53.4826 26.507C54.0886 26.027 54.5176 25.367 54.7696 24.527L56.9566 25.13C56.5546 26.396 55.8556 27.404 54.8596 28.154C53.8636 28.898 52.6186 29.27 51.1246 29.27ZM61.6507 29.27C60.9487 29.27 60.3547 29.138 59.8687 28.874C59.3827 28.604 59.0137 28.247 58.7617 27.803C58.5157 27.359 58.3927 26.87 58.3927 26.336C58.3927 25.868 58.4707 25.448 58.6267 25.076C58.7827 24.698 59.0227 24.374 59.3467 24.104C59.6707 23.828 60.0907 23.603 60.6067 23.429C60.9967 23.303 61.4527 23.189 61.9747 23.087C62.5027 22.985 63.0727 22.892 63.6847 22.808C64.3027 22.718 64.9477 22.622 65.6197 22.52L64.8457 22.961C64.8517 22.289 64.7017 21.794 64.3957 21.476C64.0897 21.158 63.5737 20.999 62.8477 20.999C62.4097 20.999 61.9867 21.101 61.5787 21.305C61.1707 21.509 60.8857 21.86 60.7237 22.358L58.7437 21.737C58.9837 20.915 59.4397 20.255 60.1117 19.757C60.7897 19.259 61.7017 19.01 62.8477 19.01C63.7117 19.01 64.4707 19.151 65.1247 19.433C65.7847 19.715 66.2737 20.177 66.5917 20.819C66.7657 21.161 66.8707 21.512 66.9067 21.872C66.9427 22.226 66.9607 22.613 66.9607 23.033V29H65.0617V26.894L65.3767 27.236C64.9387 27.938 64.4257 28.454 63.8377 28.784C63.2557 29.108 62.5267 29.27 61.6507 29.27ZM62.0827 27.542C62.5747 27.542 62.9947 27.455 63.3427 27.281C63.6907 27.107 63.9667 26.894 64.1707 26.642C64.3807 26.39 64.5217 26.153 64.5937 25.931C64.7077 25.655 64.7707 25.34 64.7827 24.986C64.8007 24.626 64.8097 24.335 64.8097 24.113L65.4757 24.311C64.8217 24.413 64.2607 24.503 63.7927 24.581C63.3247 24.659 62.9227 24.734 62.5867 24.806C62.2507 24.872 61.9537 24.947 61.6957 25.031C61.4437 25.121 61.2307 25.226 61.0567 25.346C60.8827 25.466 60.7477 25.604 60.6517 25.76C60.5617 25.916 60.5167 26.099 60.5167 26.309C60.5167 26.549 60.5767 26.762 60.6967 26.948C60.8167 27.128 60.9907 27.272 61.2187 27.38C61.4527 27.488 61.7407 27.542 62.0827 27.542ZM73.0568 29.27C71.8568 29.27 70.8818 29 70.1318 28.46C69.3818 27.92 68.9258 27.161 68.7638 26.183L70.9778 25.841C71.0918 26.321 71.3438 26.699 71.7338 26.975C72.1238 27.251 72.6158 27.389 73.2098 27.389C73.7318 27.389 74.1338 27.287 74.4158 27.083C74.7038 26.873 74.8478 26.588 74.8478 26.228C74.8478 26.006 74.7938 25.829 74.6858 25.697C74.5838 25.559 74.3558 25.427 74.0018 25.301C73.6478 25.175 73.1048 25.016 72.3728 24.824C71.5568 24.608 70.9088 24.377 70.4288 24.131C69.9488 23.879 69.6038 23.582 69.3938 23.24C69.1838 22.898 69.0788 22.484 69.0788 21.998C69.0788 21.392 69.2378 20.864 69.5558 20.414C69.8738 19.964 70.3178 19.619 70.8878 19.379C71.4578 19.133 72.1298 19.01 72.9038 19.01C73.6598 19.01 74.3288 19.127 74.9108 19.361C75.4988 19.595 75.9728 19.928 76.3328 20.36C76.6928 20.792 76.9148 21.299 76.9988 21.881L74.7848 22.277C74.7308 21.863 74.5418 21.536 74.2178 21.296C73.8998 21.056 73.4738 20.921 72.9398 20.891C72.4298 20.861 72.0188 20.939 71.7068 21.125C71.3948 21.305 71.2388 21.56 71.2388 21.89C71.2388 22.076 71.3018 22.235 71.4278 22.367C71.5538 22.499 71.8058 22.631 72.1838 22.763C72.5678 22.895 73.1378 23.057 73.8938 23.249C74.6678 23.447 75.2858 23.675 75.7478 23.933C76.2158 24.185 76.5518 24.488 76.7558 24.842C76.9658 25.196 77.0708 25.625 77.0708 26.129C77.0708 27.107 76.7138 27.875 75.9998 28.433C75.2918 28.991 74.3108 29.27 73.0568 29.27ZM84.7391 29C84.0971 29.12 83.4671 29.171 82.8491 29.153C82.2371 29.141 81.6881 29.03 81.2021 28.82C80.7161 28.604 80.3471 28.265 80.0951 27.803C79.8731 27.383 79.7561 26.954 79.7441 26.516C79.7321 26.078 79.7261 25.583 79.7261 25.031V16.58H81.8861V24.905C81.8861 25.295 81.8891 25.637 81.8951 25.931C81.9071 26.225 81.9701 26.465 82.0841 26.651C82.3001 27.011 82.6451 27.212 83.1191 27.254C83.5931 27.296 84.1331 27.272 84.7391 27.182V29ZM77.9621 20.981V19.28H84.7391V20.981H77.9621ZM87.0092 29V15.77H89.1782V29H87.0092ZM93.1521 33.32L95.0241 28.181L95.0601 29.693L90.8211 19.28H93.0801L96.0861 26.984H95.5101L98.4351 19.28H100.604L95.1861 33.32H93.1521Z" fill="#C75B33"/>
</svg>
